<?xml version="1.0" encoding="UTF-8"?>
<svg width="16px" height="16px" viewBox="0 0 16 16" version="1.1" xmlns="http://www.w3.org/2000/svg" xmlns:xlink="http://www.w3.org/1999/xlink">
    <title>1.通用/2.Icon/Line/搜索</title>
    <g id="1.通用/2.Icon/Line/搜索" stroke="none" stroke-width="1" fill="none" fill-rule="evenodd">
        <path d="M8,1 C11.5898509,1 14.5,3.91014913 14.5,7.5 C14.5,9.18731716 13.8570816,10.7244727 12.8028524,11.8798589 L14.8200336,13.8475584 C15.0572857,14.0788982 15.0620785,14.458767 14.8307387,14.696019 C14.6251033,14.9069097 14.3021117,14.9341289 14.0662448,14.7750967 L13.9822781,14.7067241 L11.9135689,12.6902564 C10.824895,13.512433 9.46938617,14 8,14 C4.41014913,14 1.5,11.0898509 1.5,7.5 C1.5,3.91014913 4.41014913,1 8,1 Z M8,2.2 C5.07289083,2.2 2.7,4.57289083 2.7,7.5 C2.7,10.4271092 5.07289083,12.8 8,12.8 C10.9271092,12.8 13.3,10.4271092 13.3,7.5 C13.3,4.57289083 10.9271092,2.2 8,2.2 Z" id="形状结合" fill="#707078"></path>
    </g>
</svg>